<?xml version="1.0"?><!DOCTYPE svg  PUBLIC '-//W3C//DTD SVG 1.1//EN'  'http://www.w3.org/Graphics/SVG/1.1/DTD/svg11.dtd'><svg height="512px" style="enable-background:new 0 0 512 512;" version="1.1" viewBox="0 0 512 512" width="512px" xml:space="preserve" xmlns="http://www.w3.org/2000/svg" xmlns:xlink="http://www.w3.org/1999/xlink"><g id="Brightness_x2C__energy_x2C__glow_x2C__light_x2C__solar_x2C__sun_x2C__sunshine"><g><path d="M334.348,113.121l6.205,3.576    c0.826,0.479,1.104,1.529,0.635,2.351L324.705,147.6c-0.484,0.815-1.539,1.108-2.354,0.629l-6.209-3.571    c-0.822-0.48-1.104-1.535-0.617-2.355l16.479-28.553C332.477,112.934,333.527,112.642,334.348,113.121L334.348,113.121z" style="fill-rule:evenodd;clip-rule:evenodd;fill:#F1BD28;"/><path d="M340.559,395.305l-6.199,3.571    c-0.82,0.479-1.877,0.19-2.355-0.62l-16.479-28.545c-0.471-0.831-0.193-1.888,0.633-2.355l6.205-3.594    c0.82-0.469,1.871-0.191,2.342,0.642l16.482,28.546C341.668,393.77,341.385,394.834,340.559,395.305L340.559,395.305z" style="fill-rule:evenodd;clip-rule:evenodd;fill:#F1BD28;"/><path d="M252.423,93.086h7.135c0.961,0,1.732,0.772,1.732,1.732    v32.944c0,0.964-0.771,1.737-1.732,1.737h-7.135c-0.966,0-1.727-0.773-1.727-1.737V94.818    C250.696,93.858,251.457,93.086,252.423,93.086L252.423,93.086z" style="fill-rule:evenodd;clip-rule:evenodd;fill:#F1BD28;"/><path d="M395.291,171.441l3.586,6.197    c0.475,0.821,0.193,1.871-0.629,2.35l-28.555,16.491c-0.818,0.47-1.883,0.187-2.354-0.634l-3.574-6.21    c-0.471-0.814-0.191-1.865,0.623-2.334l28.551-16.49C393.768,170.333,394.822,170.615,395.291,171.441L395.291,171.441z" style="fill-rule:evenodd;clip-rule:evenodd;fill:#F1BD28;"/><path d="M418.92,252.418v7.152c0,0.959-0.775,1.726-1.727,1.726    h-32.967c-0.943,0-1.717-0.767-1.717-1.726v-7.152c0-0.95,0.773-1.722,1.717-1.722h32.967    C418.145,250.696,418.92,251.468,418.92,252.418L418.92,252.418z" style="fill-rule:evenodd;clip-rule:evenodd;fill:#F1BD28;"/><path d="M398.877,334.352l-3.57,6.203    c-0.484,0.822-1.533,1.098-2.35,0.63l-28.555-16.479c-0.824-0.48-1.107-1.525-0.633-2.355l3.57-6.195    c0.486-0.82,1.535-1.107,2.354-0.628l28.555,16.479C399.07,332.476,399.357,333.531,398.877,334.352L398.877,334.352z" style="fill-rule:evenodd;clip-rule:evenodd;fill:#F1BD28;"/><path d="M259.576,418.914h-7.153c-0.949,0-1.717-0.766-1.717-1.714    v-32.972c0-0.948,0.768-1.716,1.717-1.716h7.153c0.961,0,1.727,0.768,1.727,1.716V417.2    C261.303,418.148,260.537,418.914,259.576,418.914L259.576,418.914z" style="fill-rule:evenodd;clip-rule:evenodd;fill:#F1BD28;"/><path d="M177.645,398.876l-6.199-3.562    c-0.826-0.48-1.103-1.534-0.635-2.355l16.481-28.556c0.484-0.812,1.535-1.11,2.35-0.632l6.209,3.584    c0.821,0.479,1.108,1.524,0.618,2.355l-16.479,28.545C179.521,399.066,178.465,399.365,177.645,398.876L177.645,398.876z" style="fill-rule:evenodd;clip-rule:evenodd;fill:#F1BD28;"/><path d="M116.702,340.566l-3.586-6.205    c-0.475-0.82-0.192-1.865,0.635-2.355l28.546-16.479c0.821-0.47,1.886-0.192,2.356,0.628l3.581,6.205    c0.47,0.82,0.186,1.875-0.629,2.346l-28.547,16.479C118.228,341.674,117.171,341.387,116.702,340.566L116.702,340.566z" style="fill-rule:evenodd;clip-rule:evenodd;fill:#F1BD28;"/><path d="M93.081,259.592v-7.159c0-0.959,0.768-1.727,1.727-1.727    h32.959c0.949,0,1.716,0.768,1.716,1.727v7.159c0,0.944-0.767,1.715-1.716,1.715H94.808    C93.848,261.307,93.081,260.536,93.081,259.592L93.081,259.592z" style="fill-rule:evenodd;clip-rule:evenodd;fill:#F1BD28;"/><path d="M113.116,177.65l3.571-6.204    c0.484-0.815,1.534-1.104,2.35-0.634l28.559,16.49c0.819,0.479,1.108,1.525,0.629,2.351l-3.572,6.199    c-0.48,0.826-1.535,1.103-2.356,0.628l-28.546-16.491C112.924,179.521,112.636,178.471,113.116,177.65L113.116,177.65z" style="fill-rule:evenodd;clip-rule:evenodd;fill:#F1BD28;"/><path d="M171.43,116.703l6.209-3.582    c0.82-0.475,1.871-0.187,2.351,0.628l16.479,28.553c0.47,0.821,0.192,1.882-0.634,2.355l-6.198,3.583    c-0.822,0.468-1.877,0.191-2.346-0.629l-16.481-28.558C170.332,118.232,170.61,117.176,171.43,116.703L171.43,116.703z" style="fill-rule:evenodd;clip-rule:evenodd;fill:#F1BD28;"/><path d="M256.005,138.7c64.774,0,117.295,52.525,117.295,117.304    c0,64.777-52.521,117.299-117.295,117.299c-64.791,0-117.312-52.521-117.312-117.299C138.694,191.225,191.214,138.7,256.005,138.7    L256.005,138.7z" style="fill-rule:evenodd;clip-rule:evenodd;fill:#FEBF1C;"/><path d="M253.402,153.191c37.887,0,68.598,16.751,68.598,37.426    c0,20.658-30.711,37.411-68.598,37.411c-37.884,0-68.6-16.752-68.6-37.411C184.802,169.943,215.518,153.191,253.402,153.191    L253.402,153.191z" style="fill-rule:evenodd;clip-rule:evenodd;fill:#FFD059;"/><path d="M246.667,157.54c17.78,0,32.187,7.867,32.187,17.563    c0,9.701-14.406,17.562-32.187,17.562c-17.786,0-32.198-7.861-32.198-17.562C214.469,165.407,228.881,157.54,246.667,157.54    L246.667,157.54z" style="fill-rule:evenodd;clip-rule:evenodd;fill:#FFD978;"/></g></g><g id="Layer_1"/></svg>